<svg width="209" height="21" viewBox="0 0 209 21" fill="none" xmlns="http://www.w3.org/2000/svg">
<path d="M32.4375 4.40625H4.34375V9.90625L32.4844 9.85938C33.4323 9.85938 33.9115 9.34375 33.9219 8.3125L33.9375 5.92188C33.9479 4.91146 33.4479 4.40625 32.4375 4.40625ZM4.34375 13.7969V20.0312H0.390625V0.5H33.1094C36.3073 0.5 37.9062 2.04688 37.9062 5.14062V8.98438C37.9062 12.2031 36.3229 13.8125 33.1562 13.8125L4.34375 13.7969ZM78.5625 20H74.6094V13.7188H44.9688V20H41.0781V5.3125C41.0781 2.08333 42.6458 0.46875 45.7812 0.46875H73.8438C76.9896 0.46875 78.5625 2.09896 78.5625 5.35938V20ZM44.9688 9.8125H74.6094V5.9375C74.6094 4.90625 74.0885 4.39062 73.0469 4.39062H46.5312C45.4896 4.39062 44.9688 4.92188 44.9688 5.98438V9.8125ZM115.297 14.5312V0.5H119.156V15.2344C119.156 18.4323 117.589 20.0312 114.453 20.0312H86.3281C83.2031 20.0312 81.6406 18.4323 81.6406 15.2344V0.5H85.5938V14.5312C85.5938 15.625 86.1042 16.1719 87.125 16.1719L113.766 16.1406C114.786 16.1406 115.297 15.6042 115.297 14.5312ZM159.812 20.0312H122.297V0.5H126.219V16.1406H159.812V20.0312ZM163.766 19.9688V0.453125H167.75V19.9688H163.766ZM204.484 19.9844L174.875 4.98438V20.0312H170.969L170.922 0.46875H174.844L204.516 15.4062L204.5 0.515625H208.438V19.9844H204.484Z" fill="white"/>
</svg>
